<svg width="152" height="32" viewBox="0 0 152 32" fill="none" xmlns="http://www.w3.org/2000/svg">
<g clip-path="url(#clip0_28_34)">
<path d="M23.1194 25.3429L3.35941 12.1429C1.35698 10.8053 2.03767 8.02022 4.53466 7.36528L25.536 1.84528C25.9809 1.68983 26.4576 1.63936 26.9267 1.69808C27.3957 1.7568 27.8435 1.92301 28.233 2.18292C28.6224 2.44282 28.9422 2.78892 29.1658 3.19249C29.3894 3.59607 29.5105 4.04548 29.5188 4.50342L28.2742 23.2224C28.1266 25.4442 25.1218 26.6805 23.1194 25.3429Z" fill="#DA552F"/>
<path d="M16.8522 28.6016L5.21092 6.55469C4.94481 6.05033 4.82771 5.48458 4.87253 4.91986C4.91735 4.35513 5.12235 3.81336 5.46491 3.3543C5.80748 2.89524 6.27431 2.53671 6.81392 2.31826C7.35353 2.0998 7.94496 2.02991 8.52297 2.1163L30.0971 5.34083C30.5937 5.41508 31.0651 5.60244 31.4726 5.8875C31.8799 6.17258 32.2115 6.54721 32.4403 6.98061C32.669 7.41401 32.7883 7.89379 32.7881 8.38051C32.788 8.86721 32.6686 9.34697 32.4399 9.78029L22.5015 28.6026C22.2346 29.1056 21.8297 29.5276 21.3313 29.8221C20.8329 30.1167 20.2604 30.2724 19.6765 30.2723C19.0926 30.2722 18.5201 30.1162 18.0218 29.8215C17.5235 29.5267 17.1188 29.1046 16.8522 28.6016Z" fill="#1DACE3"/>
<path d="M29.466 5.24583L18.7114 3.63837L5.50723 7.11037L10.7777 17.0954L23.1194 25.3429C23.3917 25.5228 23.6912 25.6606 24.0072 25.7514L28.6949 16.8736L29.466 5.24583Z" fill="#001A49"/>
<path d="M40.9047 19.3334H43.2111V15.7964H45.15C47.6589 15.7964 49.1184 14.2996 49.1184 12.121C49.1184 9.95305 47.6856 8.42428 45.2086 8.42428H40.9047V19.3334ZM43.2111 13.9481V10.3099H44.7665C46.0982 10.3099 46.7427 11.0344 46.7427 12.121C46.7427 13.2023 46.0982 13.9481 44.7772 13.9481H43.2111ZM50.574 19.3334H52.8431V14.7045C52.8431 13.6977 53.5782 13.0052 54.5796 13.0052C54.8939 13.0052 55.3254 13.0585 55.5385 13.1278V11.1143C55.336 11.0663 55.0537 11.0344 54.8247 11.0344C53.9085 11.0344 53.1574 11.567 52.8591 12.5791H52.7739V11.1516H50.574V19.3334ZM60.0275 19.4932C62.5098 19.4932 64.0545 17.794 64.0545 15.2744C64.0545 12.7389 62.5098 11.045 60.0275 11.045C57.5453 11.045 56.0005 12.7389 56.0005 15.2744C56.0005 17.794 57.5453 19.4932 60.0275 19.4932ZM60.0382 17.7354C58.8929 17.7354 58.307 16.686 58.307 15.2584C58.307 13.8309 58.8929 12.7762 60.0382 12.7762C61.1621 12.7762 61.7481 13.8309 61.7481 15.2584C61.7481 16.686 61.1621 17.7354 60.0382 17.7354ZM65.5726 19.3334H67.8099V18.023H67.9111C68.2253 18.7048 68.9125 19.4665 70.2335 19.4665C72.0978 19.4665 73.552 17.991 73.552 15.2531C73.552 12.4406 72.0339 11.045 70.2388 11.045C68.8699 11.045 68.2147 11.86 67.9111 12.5258H67.8418V8.42428H65.5726V19.3334ZM67.7939 15.2425C67.7939 13.7829 68.4118 12.8508 69.5144 12.8508C70.6383 12.8508 71.2349 13.8256 71.2349 15.2425C71.2349 16.67 70.6277 17.6608 69.5144 17.6608C68.4224 17.6608 67.7939 16.702 67.7939 15.2425ZM77.3353 8.42428H75.0662V19.3334H77.3353V8.42428ZM82.8818 19.4932C84.9059 19.4932 86.2695 18.5077 86.5891 16.9896L84.4904 16.8511C84.2614 17.4744 83.6754 17.7993 82.919 17.7993C81.7845 17.7993 81.0654 17.0482 81.0654 15.8284V15.8231H86.6371V15.1999C86.6371 12.4193 84.9538 11.045 82.7912 11.045C80.3835 11.045 78.8228 12.7549 78.8228 15.2798C78.8228 17.8739 80.3622 19.4932 82.8818 19.4932ZM81.0654 14.4168C81.1133 13.4847 81.8217 12.7389 82.8285 12.7389C83.8139 12.7389 84.4958 13.442 84.5011 14.4168H81.0654ZM88.1179 19.3334H90.3871V14.4222C90.3871 13.5166 90.9624 12.9147 91.7188 12.9147C92.4645 12.9147 92.9652 13.4261 92.9652 14.2304V19.3334H95.1651V14.3369C95.1651 13.49 95.6499 12.9147 96.4755 12.9147C97.1999 12.9147 97.7433 13.3675 97.7433 14.2783V19.3334H100.007V13.8309C100.007 12.0571 98.9524 11.045 97.429 11.045C96.2305 11.045 95.2983 11.6576 94.9627 12.5951H94.8775C94.6165 11.6469 93.7802 11.045 92.6563 11.045C91.5536 11.045 90.7173 11.631 90.3764 12.5951H90.2806V11.1516H88.1179V19.3334ZM108.607 13.4847C108.405 11.9772 107.19 11.045 105.123 11.045C103.03 11.045 101.65 12.0145 101.656 13.5912C101.65 14.8163 102.423 15.61 104.021 15.9296L105.438 16.2119C106.151 16.3557 106.476 16.6168 106.487 17.0269C106.476 17.5116 105.949 17.8579 105.155 17.8579C104.346 17.8579 103.808 17.5116 103.669 16.8458L101.437 16.963C101.65 18.529 102.982 19.4932 105.15 19.4932C107.27 19.4932 108.788 18.4119 108.794 16.7979C108.788 15.6153 108.016 14.9069 106.428 14.582L104.948 14.2837C104.186 14.1185 103.904 13.8575 103.909 13.4633C103.904 12.9733 104.458 12.6537 105.161 12.6537C105.949 12.6537 106.418 13.0851 106.53 13.6125L108.607 13.4847Z" fill="#001A49"/>
<path d="M113.737 19.3334H116.043V14.827H120.725V19.3334H123.026V8.42428H120.725V12.9253H116.043V8.42428H113.737V19.3334ZM130.132 15.8497C130.138 16.947 129.387 17.5223 128.572 17.5223C127.714 17.5223 127.16 16.9204 127.155 15.9562V11.1516H124.885V16.3611C124.891 18.2734 126.009 19.4399 127.655 19.4399C128.886 19.4399 129.77 18.806 130.138 17.8472H130.223V19.3334H132.401V11.1516H130.132V15.8497ZM136.486 14.6033C136.491 13.5486 137.12 12.9307 138.036 12.9307C138.947 12.9307 139.495 13.5273 139.49 14.5287V19.3334H141.759V14.1239C141.759 12.2169 140.641 11.045 138.936 11.045C137.722 11.045 136.843 11.6416 136.475 12.5951H136.379V11.1516H134.217V19.3334H136.486V14.6033ZM147.9 11.1516H146.36V9.19133H144.091V11.1516H142.972V12.8561H144.091V17.1175C144.08 18.7208 145.172 19.5145 146.818 19.4452C147.404 19.4239 147.82 19.3067 148.049 19.2322L147.692 17.5436C147.58 17.5649 147.34 17.6182 147.127 17.6182C146.674 17.6182 146.36 17.4477 146.36 16.8192V12.8561H147.9V11.1516Z" fill="#DA552F"/>
</g>
<defs>
<clipPath id="clip0_28_34">
<rect width="152" height="32" fill="white"/>
</clipPath>
</defs>
</svg>
